HIERARCHY
ROOT hips
{
  OFFSET 4.514983404067499e-9 10.105397940993303 1.318478203070619
  CHANNELS 6 Xposition Yposition Zposition Yrotation Xrotation Zrotation
  JOINT spine
  {
    OFFSET -3.891297943093837e-9 0.5743022203102706 0
    CHANNELS 3 Yrotation Xrotation Zrotation
    JOINT chest
    {
      OFFSET 0 1.2550312016247926 0
      CHANNELS 3 Yrotation Xrotation Zrotation
      JOINT upperChest
      {
        OFFSET 0 1.2059856050120283 0
        CHANNELS 3 Yrotation Xrotation Zrotation
        JOINT neck
        {
          OFFSET 0 1.5290392449770056 0
          CHANNELS 3 Yrotation Xrotation Zrotation
          JOINT head
          {
            OFFSET 0 0.8186276690878121 0
            CHANNELS 3 Yrotation Xrotation Zrotation
            JOINT leftEye
            {
              OFFSET 0.4540883942785781 -0.2684596961258452 0.6133497327236779
              CHANNELS 3 Yrotation Xrotation Zrotation
              End Site
              {
                OFFSET 0.4540883942785781 -0.2684596961258452 0.6133497327236779
              }
            }
            JOINT rightEye
            {
              OFFSET -0.4540889229417456 -0.26846010916843954 0.6133525398671689
              CHANNELS 3 Yrotation Xrotation Zrotation
              End Site
              {
                OFFSET -0.4540889229417456 -0.26846010916843954 0.6133525398671689
              }
            }
          }
        }
        JOINT leftShoulder
        {
          OFFSET 1.1700010731725468 -0.4176065950681176 0
          CHANNELS 3 Yrotation Xrotation Zrotation
          JOINT leftUpperArm
          {
            OFFSET 1.1803911524554955 0 0
            CHANNELS 3 Yrotation Xrotation Zrotation
            JOINT leftLowerArm
            {
              OFFSET 2.4406171707858904 0 0
              CHANNELS 3 Yrotation Xrotation Zrotation
              JOINT leftHand
              {
                OFFSET 2.3832177068873874 0 0
                CHANNELS 3 Yrotation Xrotation Zrotation
                JOINT leftIndexProximal
                {
                  OFFSET 0.7310175006235151 0.08192774217833776 0.20404791572985242
                  CHANNELS 3 Yrotation Xrotation Zrotation
                  JOINT leftIndexIntermediate
                  {
                    OFFSET 0.3688845439429529 -0.010662034455094949 -0.014226011560394963
                    CHANNELS 3 Yrotation Xrotation Zrotation
                    JOINT leftIndexDistal
                    {
                      OFFSET 0.2271119941018298 -0.007897656478952575 -0.007580683836364496
                      CHANNELS 3 Yrotation Xrotation Zrotation
                      End Site
                      {
                        OFFSET 0.2271119941018298 -0.007897656478952575 -0.007580683836364496
                      }
                    }
                  }
                }
                JOINT leftLittleProximal
                {
                  OFFSET 0.678269929308182 0.08192620621401336 -0.323876516389586
                  CHANNELS 3 Yrotation Xrotation Zrotation
                  JOINT leftLittleIntermediate
                  {
                    OFFSET 0.34904545821382604 -0.0000017106393073174075 8.629360392919949e-9
                    CHANNELS 3 Yrotation Xrotation Zrotation
                    JOINT leftLittleDistal
                    {
                      OFFSET 0.2011060672849896 0.0031247840072243793 0.0038660318003989197
                      CHANNELS 3 Yrotation Xrotation Zrotation
                      End Site
                      {
                        OFFSET 0.2011060672849896 0.0031247840072243793 0.0038660318003989197
                      }
                    }
                  }
                }
                JOINT leftMiddleProximal
                {
                  OFFSET 0.7368181082522638 0.0819260272939426 0.02272335773438093
                  CHANNELS 3 Yrotation Xrotation Zrotation
                  JOINT leftMiddleIntermediate
                  {
                    OFFSET 0.41136739116025356 -0.0000015892429323649537 5.27860346960507e-8
                    CHANNELS 3 Yrotation Xrotation Zrotation
                    JOINT leftMiddleDistal
                    {
                      OFFSET 0.25378150303820757 -0.0000015332469289752737 1.3442958385345705e-8
                      CHANNELS 3 Yrotation Xrotation Zrotation
                      End Site
                      {
                        OFFSET 0.25378150303820757 -0.0000015332469289752737 1.3442958385345705e-8
                      }
                    }
                  }
                }
                JOINT leftRingProximal
                {
                  OFFSET 0.7284256823094712 0.08192611199801392 -0.1508405069143483
                  CHANNELS 3 Yrotation Xrotation Zrotation
                  JOINT leftRingIntermediate
                  {
                    OFFSET 0.381593741461262 -0.0000016975471202052006 6.592486757883709e-8
                    CHANNELS 3 Yrotation Xrotation Zrotation
                    JOINT leftRingDistal
                    {
                      OFFSET 0.22014536669820362 -0.0027420652959939673 -0.005037497035641991
                      CHANNELS 3 Yrotation Xrotation Zrotation
                      End Site
                      {
                        OFFSET 0.22014536669820362 -0.0027420652959939673 -0.005037497035641991
                      }
                    }
                  }
                }
                JOINT leftThumbProximal
                {
                  OFFSET 0.10842212958334652 -0.16573713992498873 -0.07779936144556289
                  CHANNELS 3 Yrotation Xrotation Zrotation
                  JOINT leftThumbIntermediate
                  {
                    OFFSET 0.40720553822379024 -0.01751267955631075 0.31852684427382305
                    CHANNELS 3 Yrotation Xrotation Zrotation
                    JOINT leftThumbDistal
                    {
                      OFFSET 0.23412859218032667 -0.01859690713588802 0.2146635043319005
                      CHANNELS 3 Yrotation Xrotation Zrotation
                      End Site
                      {
                        OFFSET 0.23412859218032667 -0.01859690713588802 0.2146635043319005
                      }
                    }
                  }
                }
              }
            }
          }
        }
        JOINT rightShoulder
        {
          OFFSET -1.1700037144859516 -0.41760703856471126 0
          CHANNELS 3 Yrotation Xrotation Zrotation
          JOINT rightUpperArm
          {
            OFFSET -1.1803910289368023 0 0
            CHANNELS 3 Yrotation Xrotation Zrotation
            JOINT rightLowerArm
            {
              OFFSET -2.440617418222133 0 0
              CHANNELS 3 Yrotation Xrotation Zrotation
              JOINT rightHand
              {
                OFFSET -2.3832181162662343 0 0
                CHANNELS 3 Yrotation Xrotation Zrotation
                JOINT rightIndexProximal
                {
                  OFFSET -0.7310168852843362 0.08192787643494381 0.20404785424302163
                  CHANNELS 3 Yrotation Xrotation Zrotation
                  JOINT rightIndexIntermediate
                  {
                    OFFSET -0.3688846010723953 -0.01066191355993129 -0.014226020535245201
                    CHANNELS 3 Yrotation Xrotation Zrotation
                    JOINT rightIndexDistal
                    {
                      OFFSET -0.22711216276130997 -0.007898902439410271 -0.007580718044857868
                      CHANNELS 3 Yrotation Xrotation Zrotation
                      End Site
                      {
                        OFFSET -0.22711216276130997 -0.007898902439410271 -0.007580718044857868
                      }
                    }
                  }
                }
                JOINT rightLittleProximal
                {
                  OFFSET -0.6782685897119165 0.08192501740206293 -0.3238766118101876
                  CHANNELS 3 Yrotation Xrotation Zrotation
                  JOINT rightLittleIntermediate
                  {
                    OFFSET -0.34904682243945895 -2.664019085329983e-7 3.792712677253007e-8
                    CHANNELS 3 Yrotation Xrotation Zrotation
                    JOINT rightLittleDistal
                    {
                      OFFSET -0.20110609302945537 0.0031260842677420797 0.0038661724369087186
                      CHANNELS 3 Yrotation Xrotation Zrotation
                      End Site
                      {
                        OFFSET -0.20110609302945537 0.0031260842677420797 0.0038661724369087186
                      }
                    }
                  }
                }
                JOINT rightMiddleProximal
                {
                  OFFSET -0.7368168209984411 0.08192485183145659 0.022723294831187846
                  CHANNELS 3 Yrotation Xrotation Zrotation
                  JOINT rightMiddleIntermediate
                  {
                    OFFSET -0.4113687575187084 -9.03141548214137e-8 4.759541079313312e-8
                    CHANNELS 3 Yrotation Xrotation Zrotation
                    JOINT rightMiddleDistal
                    {
                      OFFSET -0.2537822083525749 -9.554208624251714e-8 -1.6364827826187422e-9
                      CHANNELS 3 Yrotation Xrotation Zrotation
                      End Site
                      {
                        OFFSET -0.2537822083525749 -9.554208624251714e-8 -1.6364827826187422e-9
                      }
                    }
                  }
                }
                JOINT rightRingProximal
                {
                  OFFSET -0.7284243957721679 0.08192492753028224 -0.15084062217729294
                  CHANNELS 3 Yrotation Xrotation Zrotation
                  JOINT rightRingIntermediate
                  {
                    OFFSET -0.381595106800805 -2.5662436442530634e-7 2.929475539925619e-8
                    CHANNELS 3 Yrotation Xrotation Zrotation
                    JOINT rightRingDistal
                    {
                      OFFSET -0.22014544912608125 -0.002738002524970362 -0.0050375115645966
                      CHANNELS 3 Yrotation Xrotation Zrotation
                      End Site
                      {
                        OFFSET -0.22014544912608125 -0.002738002524970362 -0.0050375115645966
                      }
                    }
                  }
                }
                JOINT rightThumbProximal
                {
                  OFFSET -0.10842026863657162 -0.16573778435706465 -0.07779917642461898
                  CHANNELS 3 Yrotation Xrotation Zrotation
                  JOINT rightThumbIntermediate
                  {
                    OFFSET -0.40720600760521597 -0.017512298079938038 0.3185267362029824
                    CHANNELS 3 Yrotation Xrotation Zrotation
                    JOINT rightThumbDistal
                    {
                      OFFSET -0.2341289751103648 -0.018594162598156494 0.21466399510514025
                      CHANNELS 3 Yrotation Xrotation Zrotation
                      End Site
                      {
                        OFFSET -0.2341289751103648 -0.018594162598156494 0.21466399510514025
                      }
                    }
                  }
                }
              }
            }
          }
        }
      }
    }
  }
  JOINT leftUpperLeg
  {
    OFFSET -0.8565189721517369 0.4427277044191169 0
    CHANNELS 3 Yrotation Xrotation Zrotation
    JOINT leftLowerLeg
    {
      OFFSET 0 -3.918486704769693 0
      CHANNELS 3 Yrotation Xrotation Zrotation
      JOINT leftFoot
      {
        OFFSET 6.174701361744139e-7 -0.055233446196002234 4.612027801972084
        CHANNELS 3 Yrotation Xrotation Zrotation
        JOINT leftToes
        {
          OFFSET -3.4372540951010944e-7 -0.705284859504459 1.2256624571888697
          CHANNELS 3 Yrotation Xrotation Zrotation
          End Site
          {
            OFFSET -3.4372540951010944e-7 -0.705284859504459 1.2256624571888697
          }
        }
      }
    }
  }
  JOINT rightUpperLeg
  {
    OFFSET 0.8565189732197466 0.44272769569168136 0
    CHANNELS 3 Yrotation Xrotation Zrotation
    JOINT rightLowerLeg
    {
      OFFSET 0 -3.918486692649319 0
      CHANNELS 3 Yrotation Xrotation Zrotation
      JOINT rightFoot
      {
        OFFSET 6.995136552362391e-7 -0.05523244834012664 4.612028499942008
        CHANNELS 3 Yrotation Xrotation Zrotation
        JOINT rightToes
        {
          OFFSET -4.2566694985479714e-7 -0.7052846587611067 1.22566236096697
          CHANNELS 3 Yrotation Xrotation Zrotation
          End Site
          {
            OFFSET -4.2566694985479714e-7 -0.7052846587611067 1.22566236096697
          }
        }
      }
    }
  }
}
MOTION
Frames: 4
Frame Time: 0.03333333333333333
-0.0630725622177124 -0.24064993989466998 -0.05064317584037781 -5.405383760690583 -8.97897607662275 9.68975723821541 1.3050798276786628 2.412620681652961 -5.436338545604024 3.151597898881151 9.417512740372462 -5.255072973122647 0 0 0 -0.41640053910935676 -2.811435870195171 -5.015978736653772 -2.2669000906489236 -1.7224494760205071 2.123345486037855 0 0 0 0 0 0 -13.591854254663083 3.9364967137741065 -8.194559241602953 14.473500900849272 -1.294405338556568 -59.43476216722453 -20.913809750892387 0.021812816621050123 -15.294967479315236 -3.5859138330777705 14.885716686781969 6.286337340615061 12.722116280003632 -2.815837470349907 -8.023580324276132 6.452602166428197 2.6282475959391625 -29.61504378281766 -0.000003517680857257669 -0.000004562042296464549 -8.74576712978861e-7 10.95262978835524 -21.548103413630074 -36.047448461161814 2.2004976370325844 1.8440241653268523 -24.310613486532592 -0.00000478177760852049 2.489362740169494e-8 0.0000027754250914694238 7.039187062989004 -8.921238430601203 -10.726360065975266 6.713761580728489 4.080540943875537 -39.291666465971964 -0.0000018607960859423308 0.000006048411882641524 -0.000006956479073083026 8.72052819833733 -16.122987114369685 -24.168546211175933 6.500727268763162 3.9402540799890424 -36.37803930999781 -0.000007076888664880495 -0.00002091552788391617 5.71040909508827e-7 18.253659663646335 -20.951798196290348 -8.96124392990952 22.53797528018122 5.323446106851303 7.421199596775587 0.0000022055535574170037 -0.000003302745180327109 0.000006466919547181185 12.59608457519251 3.835944527186439 8.594000696030234 -8.224718822276282 -3.2943382565800525 69.27388132977802 11.469366892718408 0.009450850755091774 6.693031840202757 0.8359260919966096 4.4003109860539125 -6.206130703536582 -12.722568448620887 -2.815803919225023 8.023464038073483 -6.4513717122028025 2.6279070089185494 29.61534764055435 0.0000037233301287403593 -0.0000048141189134101246 -0.0000185112638548862 -10.951320821745037 -21.548766159204 36.046145500152775 -2.201727784203105 1.8440162638286957 24.3105782780057 0.0000054744655745978084 -8.188756842868279e-7 -0.000010097622967155272 -7.038783157684249 -8.921241887516006 10.725633593548192 -6.713884317345842 4.080542655762452 39.2933524963691 -0.000010204842976799773 0.000009050137765251474 0.000007656649739326138 -8.721760487455668 -16.12269561137062 24.1687056317647 -6.500530275192254 3.940802217851964 36.37733583685217 0.0000037356346515810065 0.0000042449761080463185 0.0000028280983338824536 -18.253125428062283 -20.951779911882372 8.961751436370516 -22.53881801067331 5.323186292865533 -7.422008650510744 -0.0000018821191351933611 0.000010142362837526516 0.0000014067149605123974 15.863514685251108 7.079614654350901 -11.119089776647199 0.2922207027386476 12.048730785622071 0.041209188378690885 -0.950712354044588 -7.725195085126513 4.330333411817632 0.0000016793205567050096 -0.0000724207346428575 -2.169298115630862e-8 -13.716868387005787 -8.996319128364016 -22.0982839714688 0.16960587757345602 25.105056012195774 0.3334220321061324 -9.461887266947544 -7.812796364116734 8.910001124521076 -0.000009681206224707617 -0.00006752377556198795 0.00013778800090209385
-0.06270082294940948 -0.23807788026332233 -0.05407287925481796 -5.395849221254501 -8.8263298960805 9.565786202821233 1.2644524530505759 2.517163395182285 -5.339119539916007 2.880655864269764 9.592149720830854 -5.1181699605700555 0 0 0 -0.28092959925730926 -3.6650277458004172 -4.8712128342747825 -1.8277390598559082 -2.189248431785175 1.05133556633361 0 0 0 0 0 0 -13.758217304806115 3.7578799876550084 -8.907393964060729 12.862162476881156 -2.7159221792885595 -59.8734049820176 -17.552968169243638 -0.010763472728275917 -13.946489951951872 -6.10130108760832 18.38899225774686 5.739180922308159 13.420367693943396 -1.534553971192153 -11.107059446136509 6.75820970764902 3.1828086145455607 -33.00986328675596 -0.000003517680857257669 -0.000004562042296464549 -8.74576712978861e-7 13.197122612158287 -20.363163703935882 -40.105694247208525 2.4903854284104527 2.230971370842898 -26.858264418434572 -0.00000478177760852049 2.489362740169494e-8 0.0000027754250914694238 8.332463063449625 -8.140152027268835 -15.000445032471678 6.906239354665123 4.504366622598707 -41.23506763030973 -0.0000018607960859423308 0.000006048411882641524 -0.000006956479073083026 11.310029326071868 -14.89361284946556 -30.679393115062275 6.686710005974128 4.41755916300695 -38.83499677098453 -0.000007076888664880495 -0.00002091552788391617 5.71040909508827e-7 17.92639388683352 -21.130591518184108 -8.944973409564067 22.97470504102587 5.486996151439996 7.493635433393201 0.0000022055535574170037 -0.000003302745180327109 0.000006466919547181185 11.615681206390663 3.7974829506443055 9.594871604166968 -5.938628673500088 -6.749581550188999 68.44594040274805 6.76279114285448 -0.04165160446502103 6.733962224406986 5.900543046540452 1.999878196571593 -5.883772579231201 -12.881821009226234 -2.282665841866501 10.411661813621748 -6.866520897419348 3.4086361263380236 34.348350483489874 0.0000037233301287403593 -0.0000048141189134101246 -0.0000185112638548862 -13.367387683424532 -20.441768671825425 40.42965826865291 -2.7083874480686325 2.5237331357198376 28.80542907272857 0.0000054744655745978084 -8.188756842868279e-7 -0.000010097622967155272 -8.372984547537786 -8.307718212346705 15.242270902287597 -7.026266382392084 4.827468865477656 42.93692408842389 -0.000010204842976799773 0.000009050137765251474 0.000007656649739326138 -10.862304139818296 -15.277082514495671 29.277378289459328 -6.851434532276354 4.822808675129666 41.180032541076315 0.0000037356346515810065 0.0000042449761080463185 0.0000028280983338824536 -17.74075268045038 -21.231294340357127 8.935219537683821 -21.394755439597294 5.001697456819886 -7.705034538036349 -0.0000018821191351933611 0.000010142362837526516 0.0000014067149605123974 14.824180741476376 6.686282735418815 -11.301983503402822 0.3120453194387653 11.991506993617973 0.04560942767388892 0.1256126097701547 -7.663934200799835 4.234907018537173 4.410999332196964e-8 -0.0000411737376053705 0.0000034148096073069124 -13.831828540205713 -9.089927564293188 -21.91629404932838 0.09891601606964244 24.915717261797607 0.29744800611826333 -9.314106781029205 -7.693198443161075 8.850435689475008 0.00000250896402158815 -0.00006752378858953992 0.00012825408662273598
-0.06382308900356293 -0.2663047326803145 -0.0905163437128067 -5.992200664415419 -8.611116611697204 8.975264805988342 0.8621468539407033 2.7535609682359725 -4.819174895229509 1.985716669327932 10.411495789634907 -4.212519941490939 0 0 0 0.2774770739983022 -7.488266699154758 -4.88657093301803 -0.15905145499778614 -3.497670074137056 -2.507161838421055 0 0 0 0 0 0 -14.341081998866589 3.0878948791118317 -11.587378939892488 11.519047835383274 -4.914584107790409 -59.37980513279938 -15.862528772905549 -0.007705293840433234 -13.916318067553053 -10.216878826615686 28.84712149855624 4.910564981333309 14.618264259236332 2.5671010971180257 -22.792507310917042 7.492039079152502 4.9853719595846115 -42.93848776029832 -0.000003517680857257669 -0.000004562042296464549 -8.74576712978861e-7 18.68104897515901 -16.977655866192855 -49.056591017457244 3.2502087224166196 3.4866307731459427 -35.135398712200725 -0.00000478177760852049 2.489362740169494e-8 0.0000027754250914694238 12.166063876006662 -6.543420388099192 -28.22814625340135 7.549417693663056 6.511630228065114 -49.23448056596116 -0.0000018607960859423308 0.000006048411882641524 -0.000006956479073083026 17.08797874045479 -10.921236126232193 -44.98581183960184 7.384520755725389 7.064205918146912 -51.854856186910304 -0.000007076888664880495 -0.00002091552788391617 5.71040909508827e-7 15.867233712809693 -22.212465937573803 -8.79622663245807 23.64782550057235 5.6969522681152664 7.972982475479531 0.0000022055535574170037 -0.000003302745180327109 0.000006466919547181185 8.98753774667832 3.614905314261832 13.110765277660759 -4.909426822618741 -9.00209427928008 66.01344275183897 9.13904812606947 -0.06953858655837715 4.826732513346041 10.975812233023152 -7.348720675314536 -6.248854943620461 -13.332405360526863 0.7868464633463758 21.374128100512593 -7.754776749404986 6.027652722686837 48.72861421072574 0.0000037233301287403593 -0.0000048141189134101246 -0.0000185112638548862 -19.1948189330852 -17.10594547169025 49.159003371377835 -4.01669848040788 4.964700206122835 43.78170369539539 0.0000054744655745978084 -8.188756842868279e-7 -0.000010097622967155272 -12.21813708886271 -7.217021388037083 28.56210470473505 -7.695785790913294 7.34443541159664 52.216721820886185 -0.000010204842976799773 0.000009050137765251474 0.000007656649739326138 -16.312529491584904 -11.852409979888124 41.63835732598844 -7.4958036519943345 7.657499938547744 54.43445022660475 0.0000037356346515810065 0.0000042449761080463185 0.0000028280983338824536 -14.75316953281321 -22.800010382860062 8.70467854042106 -21.08524591155035 5.186720962541119 -8.47710872783365 -0.0000018821191351933611 0.000010142362837526516 0.0000014067149605123974 12.57903696704709 3.948805670879501 -11.360609759704788 0.21188464156949025 15.306023835034436 -0.03425557443238509 3.614001919931257 -9.20065569736567 3.8738366742608354 0.000003368606987115602 -0.0000012020336972081192 8.147257474273291e-7 -13.215683902513188 -9.967798127204242 -21.139271154503103 0.24641498020573077 26.136781652642185 0.3798954655414228 -9.254857055119958 -8.042279532885741 8.708386761818977 -0.000008306018652419666 -0.00005558160756575049 0.00010036228674328835
-0.07162772119045258 -0.4145076287984786 -0.15512791275978088 -7.541181631916594 -8.59690440579684 8.252021636587726 0.37280938437392525 2.8882176363202223 -4.242906312943718 1.2261632084213892 11.743287428656922 -2.6379416125566033 0 0 0 1.0597450157636907 -11.980074167076221 -5.36681157264481 1.7607876556165347 -4.710257026358484 -5.885279230411708 0 0 0 0 0 0 -14.806708290005208 2.62375352135138 -13.418122401867098 13.085548682463676 -5.318586403028138 -55.04890585825369 -23.72599302413017 0.11344894261657934 -22.47161550022392 -9.852244068723195 35.248601104707724 6.137522514699513 14.16038282233957 5.597168572086855 -32.55167083557148 7.88344632808081 6.893097001728462 -52.68626610014542 -0.000003517680857257669 -0.000004562042296464549 -8.74576712978861e-7 21.581702591567336 -14.760888224286353 -51.236174191809006 3.957171031412973 5.08412779357538 -45.25707672488717 -0.00000478177760852049 2.489362740169494e-8 0.0000027754250914694238 14.997678527538879 -6.089560718111717 -37.980770329288134 7.965332174338726 8.727176105838442 -56.37743697809804 -0.0000018607960859423308 0.000006048411882641524 -0.000006956479073083026 19.274087453041574 -8.109947976828368 -49.74816110802434 7.459737642968871 9.849442168334448 -64.50966666979913 -0.000007076888664880495 -0.00002091552788391617 5.71040909508827e-7 12.710783933653957 -23.88263753636506 -8.51087390630089 23.859004188667917 5.85073127331765 8.806215610490467 0.0000022055535574170037 -0.000003302745180327109 0.000006466919547181185 7.061852510141046 3.6190086129111245 16.353168829602676 -8.599634333719345 -6.760357553313815 62.102286922219896 31.7620876414996 0.06724441509507978 3.4535377626345793 12.184297211677462 -16.362598980266196 -11.035170366165568 -12.909672789535984 4.455759193271773 32.55749158982261 -7.92235252559291 8.335036294829097 59.88273219805648 0.0000037233301287403593 -0.0000048141189134101246 -0.0000185112638548862 -21.71284172366025 -15.363622760776659 48.62213579564216 -4.604529933267615 7.285165608622607 57.463440270709896 0.0000054744655745978084 -8.188756842868279e-7 -0.000010097622967155272 -15.267075509777282 -7.292582511403201 38.25239829088055 -8.119398150327147 9.217103039040424 56.18403056608523 -0.000010204842976799773 0.000009050137765251474 0.000007656649739326138 -19.087100644426734 -9.154232577996561 46.85634894956833 -7.573360276483963 9.601153256658868 62.08304494486072 0.0000037356346515810065 0.0000042449761080463185 0.0000028280983338824536 -10.637028488030891 -24.944896281581585 8.263808400171351 -23.299062254763278 5.910688876434977 -9.788072346998156 -0.0000018821191351933611 0.000010142362837526516 0.0000014067149605123974 13.246676312398648 -1.6359850433446979 -10.710203189357449 -0.17599509323584545 25.488976140589145 -0.32864913795459394 5.978719500192524 -14.416808599496145 3.2420546448400174 -0.000007332417583099515 0.000007522668695258492 4.6400638981334646e-7 -10.039759030362275 -12.951184062010586 -20.302652534043286 0.26078042564811815 32.63471563863627 0.43211620218785873 -9.874886312320985 -10.707374594945465 9.147893454876922 -0.0000023470696154139153 -0.00006108884883267697 0.00011803533999113773
